<?xml version="1.0" encoding="UTF-8" standalone="no"?>
<!-- Created with Inkscape (http://www.inkscape.org/) -->

<svg
   width="77.327156mm"
   height="27.628719mm"
   viewBox="0 0 77.327156 27.628716"
   version="1.1"
   id="svg5"
   inkscape:version="1.1.2 (b8e25be833, 2022-02-05)"
   sodipodi:docname="harmonize_logo.svg"
   xmlns:inkscape="http://www.inkscape.org/namespaces/inkscape"
   xmlns:sodipodi="http://sodipodi.sourceforge.net/DTD/sodipodi-0.dtd"
   xmlns="http://www.w3.org/2000/svg"
   xmlns:svg="http://www.w3.org/2000/svg">
  <sodipodi:namedview
     id="namedview7"
     pagecolor="#ffffff"
     bordercolor="#666666"
     borderopacity="1.0"
     inkscape:pageshadow="2"
     inkscape:pageopacity="0.0"
     inkscape:pagecheckerboard="0"
     inkscape:document-units="mm"
     showgrid="false"
     fit-margin-top="8"
     fit-margin-left="0"
     fit-margin-right="0"
     fit-margin-bottom="8"
     inkscape:zoom="2.932688"
     inkscape:cx="156.51171"
     inkscape:cy="-0.34098411"
     inkscape:window-width="1920"
     inkscape:window-height="1009"
     inkscape:window-x="-8"
     inkscape:window-y="-8"
     inkscape:window-maximized="1"
     inkscape:current-layer="layer1" />
  <defs
     id="defs2" />
  <g
     inkscape:label="Warstwa 1"
     inkscape:groupmode="layer"
     id="layer1"
     transform="translate(-65.766021,-150.16812)">
    <path
       style="fill:#1a2e62;stroke-width:0.264583"
       d="m 65.766029,164.10783 v -5.68854 h 1.048404 1.048405 l 0.07607,2.4474 0.07607,2.44739 h 2.645833 2.645833 l 0.07608,-2.44739 0.07607,-2.4474 h 1.048405 1.048405 v 5.68854 5.68854 H 74.49727 73.438937 v -2.51354 -2.51354 h -2.778125 -2.778125 v 2.51354 2.51354 h -1.058333 -1.058333 z m 12.783441,5.42211 c -1.259404,-0.50742 -1.507928,-2.20567 -0.474076,-3.23952 0.640878,-0.64088 2.388725,-1.25655 3.567269,-1.25655 0.47024,0 0.547638,-0.13457 0.478149,-0.83135 -0.109543,-1.0984 -0.796699,-1.32812 -2.420322,-0.80911 -1.101378,0.35207 -1.312176,0.35658 -1.517303,0.0325 -0.395643,-0.62512 -0.293225,-0.77785 0.878154,-1.30956 1.997292,-0.9066 3.991011,-0.50923 4.644843,0.92578 0.186287,0.40885 0.316094,1.93815 0.316094,3.724 0,2.83579 -0.03336,3.03026 -0.519858,3.03026 -0.285921,0 -0.64646,-0.23656 -0.801197,-0.52569 -0.28072,-0.52452 -0.283504,-0.52452 -1.262162,0 -1.04162,0.55828 -1.946047,0.63943 -2.889591,0.25926 z m 3.574136,-2.63295 0.0857,-0.8797 -1.088268,0.14596 c -1.266433,0.16987 -1.861264,0.58302 -1.861264,1.2928 0,0.70599 1.005462,1.02923 1.984375,0.63793 0.625119,-0.24987 0.811958,-0.50417 0.879453,-1.19699 z m 4.015339,-1.21842 v -4.11781 l 0.849497,0.0829 c 0.638788,0.0623 0.885456,0.23684 0.994465,0.70349 l 0.144967,0.62057 0.497068,-0.54925 c 0.499309,-0.55173 2.03611,-1.00399 2.479803,-0.72977 0.130701,0.0808 0.184444,0.50929 0.11943,0.95226 -0.103158,0.70287 -0.224779,0.8054 -0.955347,0.8054 -0.460428,0 -1.101758,0.18535 -1.425179,0.41188 -0.54383,0.38092 -0.588038,0.61961 -0.588038,3.175 v 2.76312 h -1.058333 -1.058333 z m 6.614583,0.0168 v -4.10104 h 0.79375 c 0.529166,0 0.79375,0.13229 0.79375,0.39688 0,0.49971 0.50805,0.49607 1.175048,-0.008 0.819145,-0.61957 1.939457,-0.47943 2.711181,0.33915 0.45844,0.48626 0.725453,0.61606 0.805021,0.3913 0.168063,-0.47472 1.503872,-1.11891 2.320202,-1.11891 0.99552,0 2.09768,0.64813 2.46203,1.44782 0.18629,0.40885 0.3161,1.93815 0.3161,3.724 v 3.03026 h -0.92604 -0.92604 v -2.85984 c 0,-3.19436 -0.23862,-3.82089 -1.45521,-3.82089 -1.216592,0 -1.455209,0.62653 -1.455209,3.82089 v 2.85984 h -0.926042 -0.926042 v -2.98979 c 0,-1.97261 -0.108018,-3.09781 -0.3175,-3.30729 -0.390054,-0.39005 -1.394478,-0.4111 -2.081143,-0.0436 -0.460291,0.24634 -0.511773,0.57905 -0.511773,3.30729 v 3.0334 h -0.926042 -0.926041 z m 15.086522,3.65267 c -1.37546,-0.71355 -2.12194,-1.99853 -2.12194,-3.65267 0,-2.5412 1.82043,-4.23567 4.31919,-4.02035 0.70206,0.0605 1.59503,0.34345 1.98437,0.62878 2.13514,1.56472 2.13514,5.21843 0,6.78315 -1.00159,0.734 -3.02634,0.86043 -4.18162,0.26109 z m 3.32398,-1.69256 c 0.66949,-0.73978 0.62208,-3.28574 -0.0742,-3.98198 -0.7043,-0.70429 -2.08535,-0.72069 -2.77312,-0.0329 -0.67075,0.67076 -0.90227,2.59545 -0.42158,3.50479 0.68011,1.28658 2.33275,1.54448 3.26885,0.51011 z m 4.07908,-1.96011 v -4.10104 h 0.76289 c 0.54493,0 0.80315,0.15394 0.90379,0.53881 l 0.1409,0.53881 0.88215,-0.53782 c 1.0658,-0.64979 2.26721,-0.69178 3.10018,-0.10835 1.02084,0.71503 1.35384,1.94091 1.35384,4.98401 v 2.78662 h -1.05833 -1.05834 v -2.88877 c 0,-1.58883 -0.0723,-3.07711 -0.1606,-3.3073 -0.23081,-0.60149 -2.01396,-0.55627 -2.57651,0.0653 -0.34988,0.38661 -0.43789,1.05135 -0.43789,3.3073 v 2.82343 h -0.92604 -0.92604 z m 9.26042,0 v -4.10104 h 0.92604 0.92604 v 4.10104 4.10104 h -0.92604 -0.92604 z m 3.70416,3.52899 c 0,-0.31463 0.83874,-1.68792 1.86386,-3.05176 1.02512,-1.36383 1.93083,-2.65422 2.01268,-2.86752 0.12214,-0.3183 -0.1883,-0.38783 -1.73156,-0.38783 -1.82936,0 -1.88039,-0.018 -1.88039,-0.66146 v -0.66146 h 3.0427 c 2.94237,0 3.04271,0.0189 3.04271,0.57206 0,0.31463 -0.83874,1.68792 -1.86386,3.05175 -1.02512,1.36383 -1.93083,2.65422 -2.01268,2.86753 -0.12271,0.31977 0.20437,0.38783 1.86386,0.38783 1.97047,0 2.01268,0.0139 2.01268,0.66146 v 0.66145 h -3.175 c -3.07796,0 -3.175,-0.0175 -3.175,-0.57205 z m 9.65729,0.0732 c -1.98487,-0.91379 -2.75752,-3.48842 -1.67066,-5.56698 0.80423,-1.53804 2.02328,-2.20739 3.74576,-2.05671 1.73558,0.15184 2.82093,1.20686 3.01527,2.93099 l 0.13783,1.22281 h -2.68025 c -2.62337,0 -2.68024,0.013 -2.68024,0.61089 0,1.48553 1.56825,2.21164 3.42274,1.58476 1.89096,-0.6392 2.27586,0.61523 0.42594,1.38818 -1.22957,0.51374 -2.43315,0.47684 -3.71639,-0.11394 z m 3.57188,-4.76349 c 0,-0.1294 -0.21862,-0.50526 -0.48583,-0.83525 -0.58751,-0.72554 -1.9663,-0.77429 -2.71576,-0.096 -0.97212,0.87975 -0.64033,1.16656 1.3495,1.16656 1.01865,0 1.85209,-0.10587 1.85209,-0.23527 z m -16.78214,-4.41384 c -0.22868,-0.22867 -0.41578,-0.57736 -0.41578,-0.77485 0,-0.19749 0.1871,-0.54617 0.41578,-0.77485 0.79915,-0.79915 1.96547,-0.33935 1.96547,0.77485 0,1.1142 -1.16632,1.574 -1.96547,0.77485 z"
       id="path1050" />
  </g>
</svg>
