<?xml version="1.0" encoding="UTF-8" standalone="no"?>
<!-- Created with Inkscape (http://www.inkscape.org/) -->

<svg
   width="62.968857mm"
   height="30.00008mm"
   viewBox="0 0 62.968857 30.00008"
   version="1.1"
   id="svg1"
   inkscape:version="1.3.2 (091e20e, 2023-11-25, custom)"
   sodipodi:docname="czMSMT_en.svg"
   xmlns:inkscape="http://www.inkscape.org/namespaces/inkscape"
   xmlns:sodipodi="http://sodipodi.sourceforge.net/DTD/sodipodi-0.dtd"
   xmlns="http://www.w3.org/2000/svg"
   xmlns:svg="http://www.w3.org/2000/svg">
  <sodipodi:namedview
     id="namedview1"
     pagecolor="#ffffff"
     bordercolor="#000000"
     borderopacity="0.25"
     inkscape:showpageshadow="2"
     inkscape:pageopacity="0.0"
     inkscape:pagecheckerboard="0"
     inkscape:deskcolor="#d1d1d1"
     inkscape:document-units="mm"
     inkscape:zoom="2.0899411"
     inkscape:cx="111.24716"
     inkscape:cy="92.586342"
     inkscape:window-width="1435"
     inkscape:window-height="1237"
     inkscape:window-x="52"
     inkscape:window-y="200"
     inkscape:window-maximized="0"
     inkscape:current-layer="layer1" />
  <defs
     id="defs1">
    <clipPath
       clipPathUnits="userSpaceOnUse"
       id="clipPath2">
      <path
         d="M 0,728.504 H 515.905 V 0 H 0 Z"
         transform="translate(-274.05861,-400.82321)"
         id="path2" />
    </clipPath>
    <clipPath
       clipPathUnits="userSpaceOnUse"
       id="clipPath4">
      <path
         d="M 0,728.504 H 515.905 V 0 H 0 Z"
         transform="translate(-169.8745,-340.46001)"
         id="path4" />
    </clipPath>
    <clipPath
       clipPathUnits="userSpaceOnUse"
       id="clipPath6">
      <path
         d="M 0,728.504 H 515.905 V 0 H 0 Z"
         id="path6" />
    </clipPath>
    <clipPath
       clipPathUnits="userSpaceOnUse"
       id="clipPath8">
      <path
         d="M 0,728.504 H 515.905 V 0 H 0 Z"
         transform="translate(-186.2134,-340.46001)"
         id="path8" />
    </clipPath>
    <clipPath
       clipPathUnits="userSpaceOnUse"
       id="clipPath10">
      <path
         d="M 0,728.504 H 515.905 V 0 H 0 Z"
         id="path10" />
    </clipPath>
    <clipPath
       clipPathUnits="userSpaceOnUse"
       id="clipPath12">
      <path
         d="M 0,728.504 H 515.905 V 0 H 0 Z"
         transform="translate(-201.18511,-335.03611)"
         id="path12" />
    </clipPath>
    <clipPath
       clipPathUnits="userSpaceOnUse"
       id="clipPath14">
      <path
         d="M 0,728.504 H 515.905 V 0 H 0 Z"
         transform="translate(-212.04441,-339.71971)"
         id="path14" />
    </clipPath>
    <clipPath
       clipPathUnits="userSpaceOnUse"
       id="clipPath16">
      <path
         d="M 0,728.504 H 515.905 V 0 H 0 Z"
         transform="translate(-218.0728,-340.46001)"
         id="path16" />
    </clipPath>
    <clipPath
       clipPathUnits="userSpaceOnUse"
       id="clipPath18">
      <path
         d="M 0,728.504 H 515.905 V 0 H 0 Z"
         transform="translate(-230.34331,-335.86521)"
         id="path18" />
    </clipPath>
    <clipPath
       clipPathUnits="userSpaceOnUse"
       id="clipPath20">
      <path
         d="M 0,728.504 H 515.905 V 0 H 0 Z"
         transform="translate(-245.4604,-332.15531)"
         id="path20" />
    </clipPath>
    <clipPath
       clipPathUnits="userSpaceOnUse"
       id="clipPath22">
      <path
         d="M 0,728.504 H 515.905 V 0 H 0 Z"
         transform="translate(-252.35301,-340.46001)"
         id="path22" />
    </clipPath>
    <clipPath
       clipPathUnits="userSpaceOnUse"
       id="clipPath24">
      <path
         d="M 0,728.504 H 515.905 V 0 H 0 Z"
         transform="translate(-265.5313,-340.46001)"
         id="path24" />
    </clipPath>
    <clipPath
       clipPathUnits="userSpaceOnUse"
       id="clipPath26">
      <path
         d="M 0,728.504 H 515.905 V 0 H 0 Z"
         transform="translate(-280.61521,-339.73141)"
         id="path26" />
    </clipPath>
    <clipPath
       clipPathUnits="userSpaceOnUse"
       id="clipPath28">
      <path
         d="M 0,728.504 H 515.905 V 0 H 0 Z"
         transform="translate(-285.37791,-340.46001)"
         id="path28" />
    </clipPath>
    <clipPath
       clipPathUnits="userSpaceOnUse"
       id="clipPath30">
      <path
         d="M 0,728.504 H 515.905 V 0 H 0 Z"
         transform="translate(-298.4893,-339.88871)"
         id="path30" />
    </clipPath>
    <clipPath
       clipPathUnits="userSpaceOnUse"
       id="clipPath32">
      <path
         d="M 0,728.504 H 515.905 V 0 H 0 Z"
         transform="translate(-307.71191,-340.46001)"
         id="path32" />
    </clipPath>
    <clipPath
       clipPathUnits="userSpaceOnUse"
       id="clipPath34">
      <path
         d="M 0,728.504 H 515.905 V 0 H 0 Z"
         transform="translate(-315.81351,-339.71971)"
         id="path34" />
    </clipPath>
    <clipPath
       clipPathUnits="userSpaceOnUse"
       id="clipPath36">
      <path
         d="M 0,728.504 H 515.905 V 0 H 0 Z"
         id="path36" />
    </clipPath>
    <clipPath
       clipPathUnits="userSpaceOnUse"
       id="clipPath38">
      <path
         d="M 0,728.504 H 515.905 V 0 H 0 Z"
         transform="translate(-329.64261,-332.15531)"
         id="path38" />
    </clipPath>
    <clipPath
       clipPathUnits="userSpaceOnUse"
       id="clipPath40">
      <path
         d="M 0,728.504 H 515.905 V 0 H 0 Z"
         transform="translate(-336.53421,-340.46001)"
         id="path40" />
    </clipPath>
    <clipPath
       clipPathUnits="userSpaceOnUse"
       id="clipPath42">
      <path
         d="M 0,728.504 H 515.905 V 0 H 0 Z"
         transform="translate(-347.46091,-333.35551)"
         id="path42" />
    </clipPath>
    <clipPath
       clipPathUnits="userSpaceOnUse"
       id="clipPath44">
      <path
         d="M 0,728.504 H 515.905 V 0 H 0 Z"
         transform="translate(-204.67531,-324.07911)"
         id="path44" />
    </clipPath>
    <clipPath
       clipPathUnits="userSpaceOnUse"
       id="clipPath46">
      <path
         d="M 0,728.504 H 515.905 V 0 H 0 Z"
         transform="translate(-212.7505,-321.00001)"
         id="path46" />
    </clipPath>
    <clipPath
       clipPathUnits="userSpaceOnUse"
       id="clipPath48">
      <path
         d="M 0,728.504 H 515.905 V 0 H 0 Z"
         transform="translate(-218.97411,-327.89361)"
         id="path48" />
    </clipPath>
    <clipPath
       clipPathUnits="userSpaceOnUse"
       id="clipPath50">
      <path
         d="M 0,728.504 H 515.905 V 0 H 0 Z"
         transform="translate(-228.30421,-327.27931)"
         id="path50" />
    </clipPath>
    <clipPath
       clipPathUnits="userSpaceOnUse"
       id="clipPath52">
      <path
         d="M 0,728.504 H 515.905 V 0 H 0 Z"
         transform="translate(-233.1226,-327.89361)"
         id="path52" />
    </clipPath>
    <clipPath
       clipPathUnits="userSpaceOnUse"
       id="clipPath54">
      <path
         d="M 0,728.504 H 515.905 V 0 H 0 Z"
         transform="translate(-247.3081,-327.89361)"
         id="path54" />
    </clipPath>
    <clipPath
       clipPathUnits="userSpaceOnUse"
       id="clipPath56">
      <path
         d="M 0,728.504 H 515.905 V 0 H 0 Z"
         transform="translate(-252.75931,-327.89361)"
         id="path56" />
    </clipPath>
    <clipPath
       clipPathUnits="userSpaceOnUse"
       id="clipPath58">
      <path
         d="M 0,728.504 H 515.905 V 0 H 0 Z"
         transform="translate(-266.49901,-327.28911)"
         id="path58" />
    </clipPath>
    <clipPath
       clipPathUnits="userSpaceOnUse"
       id="clipPath60">
      <path
         d="M 0,728.504 H 515.905 V 0 H 0 Z"
         transform="translate(-273.76371,-323.39061)"
         id="path60" />
    </clipPath>
    <clipPath
       clipPathUnits="userSpaceOnUse"
       id="clipPath62">
      <path
         d="M 0,728.504 H 515.905 V 0 H 0 Z"
         transform="translate(-280.7686,-327.89361)"
         id="path62" />
    </clipPath>
    <clipPath
       clipPathUnits="userSpaceOnUse"
       id="clipPath64">
      <path
         d="M 0,728.504 H 515.905 V 0 H 0 Z"
         transform="translate(-291.10351,-321.00001)"
         id="path64" />
    </clipPath>
    <clipPath
       clipPathUnits="userSpaceOnUse"
       id="clipPath66">
      <path
         d="M 0,728.504 H 515.905 V 0 H 0 Z"
         transform="translate(-296.6377,-327.89361)"
         id="path66" />
    </clipPath>
    <clipPath
       clipPathUnits="userSpaceOnUse"
       id="clipPath68">
      <path
         d="M 0,728.504 H 515.905 V 0 H 0 Z"
         transform="translate(-306.24801,-327.27931)"
         id="path68" />
    </clipPath>
    <clipPath
       clipPathUnits="userSpaceOnUse"
       id="clipPath70">
      <path
         d="M 0,728.504 H 515.905 V 0 H 0 Z"
         transform="translate(-311.49411,-323.39061)"
         id="path70" />
    </clipPath>
    <clipPath
       clipPathUnits="userSpaceOnUse"
       id="clipPath72">
      <path
         d="M 0,728.504 H 515.905 V 0 H 0 Z"
         transform="translate(-169.8745,-340.46001)"
         id="path72" />
    </clipPath>
    <clipPath
       clipPathUnits="userSpaceOnUse"
       id="clipPath74">
      <path
         d="M 0,728.504 H 515.905 V 0 H 0 Z"
         id="path74" />
    </clipPath>
    <clipPath
       clipPathUnits="userSpaceOnUse"
       id="clipPath76">
      <path
         d="M 0,728.504 H 515.905 V 0 H 0 Z"
         transform="translate(-186.2134,-340.46001)"
         id="path76" />
    </clipPath>
    <clipPath
       clipPathUnits="userSpaceOnUse"
       id="clipPath78">
      <path
         d="M 0,728.504 H 515.905 V 0 H 0 Z"
         id="path78" />
    </clipPath>
    <clipPath
       clipPathUnits="userSpaceOnUse"
       id="clipPath80">
      <path
         d="M 0,728.504 H 515.905 V 0 H 0 Z"
         transform="translate(-201.18511,-335.03611)"
         id="path80" />
    </clipPath>
    <clipPath
       clipPathUnits="userSpaceOnUse"
       id="clipPath82">
      <path
         d="M 0,728.504 H 515.905 V 0 H 0 Z"
         transform="translate(-212.04441,-339.71971)"
         id="path82" />
    </clipPath>
    <clipPath
       clipPathUnits="userSpaceOnUse"
       id="clipPath84">
      <path
         d="M 0,728.504 H 515.905 V 0 H 0 Z"
         transform="translate(-218.0728,-340.46001)"
         id="path84" />
    </clipPath>
    <clipPath
       clipPathUnits="userSpaceOnUse"
       id="clipPath86">
      <path
         d="M 0,728.504 H 515.905 V 0 H 0 Z"
         transform="translate(-230.34331,-335.86521)"
         id="path86" />
    </clipPath>
    <clipPath
       clipPathUnits="userSpaceOnUse"
       id="clipPath88">
      <path
         d="M 0,728.504 H 515.905 V 0 H 0 Z"
         transform="translate(-245.4604,-332.15531)"
         id="path88" />
    </clipPath>
    <clipPath
       clipPathUnits="userSpaceOnUse"
       id="clipPath90">
      <path
         d="M 0,728.504 H 515.905 V 0 H 0 Z"
         transform="translate(-252.35301,-340.46001)"
         id="path90" />
    </clipPath>
    <clipPath
       clipPathUnits="userSpaceOnUse"
       id="clipPath92">
      <path
         d="M 0,728.504 H 515.905 V 0 H 0 Z"
         transform="translate(-265.5313,-340.46001)"
         id="path92" />
    </clipPath>
    <clipPath
       clipPathUnits="userSpaceOnUse"
       id="clipPath94">
      <path
         d="M 0,728.504 H 515.905 V 0 H 0 Z"
         transform="translate(-280.61521,-339.73141)"
         id="path94" />
    </clipPath>
    <clipPath
       clipPathUnits="userSpaceOnUse"
       id="clipPath96">
      <path
         d="M 0,728.504 H 515.905 V 0 H 0 Z"
         transform="translate(-285.37791,-340.46001)"
         id="path96" />
    </clipPath>
    <clipPath
       clipPathUnits="userSpaceOnUse"
       id="clipPath98">
      <path
         d="M 0,728.504 H 515.905 V 0 H 0 Z"
         transform="translate(-298.4893,-339.88871)"
         id="path98" />
    </clipPath>
    <clipPath
       clipPathUnits="userSpaceOnUse"
       id="clipPath100">
      <path
         d="M 0,728.504 H 515.905 V 0 H 0 Z"
         transform="translate(-307.71191,-340.46001)"
         id="path100" />
    </clipPath>
    <clipPath
       clipPathUnits="userSpaceOnUse"
       id="clipPath102">
      <path
         d="M 0,728.504 H 515.905 V 0 H 0 Z"
         transform="translate(-315.81351,-339.71971)"
         id="path102" />
    </clipPath>
    <clipPath
       clipPathUnits="userSpaceOnUse"
       id="clipPath104">
      <path
         d="M 0,728.504 H 515.905 V 0 H 0 Z"
         id="path104" />
    </clipPath>
    <clipPath
       clipPathUnits="userSpaceOnUse"
       id="clipPath106">
      <path
         d="M 0,728.504 H 515.905 V 0 H 0 Z"
         transform="translate(-329.64261,-332.15531)"
         id="path106" />
    </clipPath>
    <clipPath
       clipPathUnits="userSpaceOnUse"
       id="clipPath108">
      <path
         d="M 0,728.504 H 515.905 V 0 H 0 Z"
         transform="translate(-336.53421,-340.46001)"
         id="path108" />
    </clipPath>
    <clipPath
       clipPathUnits="userSpaceOnUse"
       id="clipPath110">
      <path
         d="M 0,728.504 H 515.905 V 0 H 0 Z"
         transform="translate(-347.46091,-333.35551)"
         id="path110" />
    </clipPath>
    <clipPath
       clipPathUnits="userSpaceOnUse"
       id="clipPath112">
      <path
         d="M 0,728.504 H 515.905 V 0 H 0 Z"
         transform="translate(-204.67531,-324.07911)"
         id="path112" />
    </clipPath>
    <clipPath
       clipPathUnits="userSpaceOnUse"
       id="clipPath114">
      <path
         d="M 0,728.504 H 515.905 V 0 H 0 Z"
         transform="translate(-212.7505,-321.00001)"
         id="path114" />
    </clipPath>
    <clipPath
       clipPathUnits="userSpaceOnUse"
       id="clipPath116">
      <path
         d="M 0,728.504 H 515.905 V 0 H 0 Z"
         transform="translate(-218.97411,-327.89361)"
         id="path116" />
    </clipPath>
    <clipPath
       clipPathUnits="userSpaceOnUse"
       id="clipPath118">
      <path
         d="M 0,728.504 H 515.905 V 0 H 0 Z"
         transform="translate(-228.30421,-327.27931)"
         id="path118" />
    </clipPath>
    <clipPath
       clipPathUnits="userSpaceOnUse"
       id="clipPath120">
      <path
         d="M 0,728.504 H 515.905 V 0 H 0 Z"
         transform="translate(-233.1226,-327.89361)"
         id="path120" />
    </clipPath>
    <clipPath
       clipPathUnits="userSpaceOnUse"
       id="clipPath122">
      <path
         d="M 0,728.504 H 515.905 V 0 H 0 Z"
         transform="translate(-247.3081,-327.89361)"
         id="path122" />
    </clipPath>
    <clipPath
       clipPathUnits="userSpaceOnUse"
       id="clipPath124">
      <path
         d="M 0,728.504 H 515.905 V 0 H 0 Z"
         transform="translate(-252.75931,-327.89361)"
         id="path124" />
    </clipPath>
    <clipPath
       clipPathUnits="userSpaceOnUse"
       id="clipPath126">
      <path
         d="M 0,728.504 H 515.905 V 0 H 0 Z"
         transform="translate(-266.49901,-327.28911)"
         id="path126" />
    </clipPath>
    <clipPath
       clipPathUnits="userSpaceOnUse"
       id="clipPath128">
      <path
         d="M 0,728.504 H 515.905 V 0 H 0 Z"
         transform="translate(-273.76371,-323.39061)"
         id="path128" />
    </clipPath>
    <clipPath
       clipPathUnits="userSpaceOnUse"
       id="clipPath130">
      <path
         d="M 0,728.504 H 515.905 V 0 H 0 Z"
         transform="translate(-280.7686,-327.89361)"
         id="path130" />
    </clipPath>
    <clipPath
       clipPathUnits="userSpaceOnUse"
       id="clipPath132">
      <path
         d="M 0,728.504 H 515.905 V 0 H 0 Z"
         transform="translate(-291.10351,-321.00001)"
         id="path132" />
    </clipPath>
    <clipPath
       clipPathUnits="userSpaceOnUse"
       id="clipPath134">
      <path
         d="M 0,728.504 H 515.905 V 0 H 0 Z"
         transform="translate(-296.6377,-327.89361)"
         id="path134" />
    </clipPath>
    <clipPath
       clipPathUnits="userSpaceOnUse"
       id="clipPath136">
      <path
         d="M 0,728.504 H 515.905 V 0 H 0 Z"
         transform="translate(-306.24801,-327.27931)"
         id="path136" />
    </clipPath>
    <clipPath
       clipPathUnits="userSpaceOnUse"
       id="clipPath138">
      <path
         d="M 0,728.504 H 515.905 V 0 H 0 Z"
         transform="translate(-311.49411,-323.39061)"
         id="path138" />
    </clipPath>
  </defs>
  <g
     inkscape:label="Warstwa 1"
     inkscape:groupmode="layer"
     id="layer1"
     transform="translate(-73.554166,-133.61459)">
    <path
       id="path1"
       d="M 0,0 8.77,5.216 H 5.994 l -8.057,-3.628 -8.2,3.628 H -12.88 L -4.045,0 Z m 4.26,-28.208 c 3.841,1.234 6.694,3.392 7.078,6.416 0,4.271 -4.993,5.979 -9.91,6.994 -7.139,1.422 -12.214,2.602 -13.008,5.692 -0.145,0.43 -0.157,0.651 -0.157,0.976 0.157,3.335 4.837,5.408 9.119,5.408 4.361,0 7.138,-0.57 9.913,-3.173 l 2.378,0.774 c -3.092,2.764 -7.295,3.496 -12.291,3.496 -4.152,0 -7.695,-0.696 -10.262,-1.943 v 8.784 h -6.325 l -16.118,-20.919 h -0.154 l -16.43,20.919 h -6.17 v -25.624 h 3.009 V 1.975 l 18.064,-22.824 h -5.559 v -25.623 h 2.549 v 22.382 l 18.28,-23.095 h 0.077 l 18.434,23.411 v -22.698 h 5.399 v 17.035 h 9.542 v -23.897 h 5.552 v 23.897 h 11.493 v 1.229 z m -2.084,1.477 v 5.882 H -4.15 l -5.173,-6.712 c -2.148,0.556 -4.051,1.537 -5.507,3.006 l -2.617,-0.976 c 1.678,-1.622 4.198,-2.708 7.136,-3.313 l -9.956,-12.923 h -0.155 l -16.252,20.694 18.395,23.363 v -22.698 h 5.399 v 6.234 c 2.853,-1.143 6.76,-1.876 10.738,-2.779 5.87,-1.26 7.614,-3.495 7.614,-5.651 0,-1.662 -1.193,-3.125 -3.296,-4.127"
       style="fill:#428d96;fill-opacity:1;fill-rule:nonzero;stroke:none"
       transform="matrix(0.35277776,0,0,-0.35277776,110.308,135.45468)"
       clip-path="url(#clipPath2)" />
    <path
       id="path3"
       d="M 0,0 H 1.289 L 4.707,-7.341 8.17,0 H 9.357 V -8.091 H 8.563 l 0.033,7.396 -3.43,-7.396 h -0.93 l -3.519,7.396 0.08,-7.396 H 0 Z"
       style="fill:#87888a;fill-opacity:1;fill-rule:nonzero;stroke:none"
       transform="matrix(0.35277776,0,0,-0.35277776,73.554166,156.74947)"
       clip-path="url(#clipPath4)" />
    <path
       id="path5"
       d="m 182.325,340.46 h 0.808 v -8.091 h -0.808 z"
       style="fill:#87888a;fill-opacity:1;fill-rule:nonzero;stroke:none"
       transform="matrix(0.35277776,0,0,-0.35277776,13.626219,276.85619)"
       clip-path="url(#clipPath6)" />
    <path
       id="path7"
       d="M 0,0 H 1.031 L 6.69,-7.262 V 0 H 7.476 V -8.091 H 6.399 L 0.784,-0.829 V -8.091 H 0 Z"
       style="fill:#87888a;fill-opacity:1;fill-rule:nonzero;stroke:none"
       transform="matrix(0.35277776,0,0,-0.35277776,79.318167,156.74947)"
       clip-path="url(#clipPath8)" />
    <path
       id="path9"
       d="m 196.781,340.46 h 0.808 v -8.091 h -0.808 z"
       style="fill:#87888a;fill-opacity:1;fill-rule:nonzero;stroke:none"
       transform="matrix(0.35277776,0,0,-0.35277776,13.626219,276.85619)"
       clip-path="url(#clipPath10)" />
    <path
       id="path11"
       d="m 0,0 v -0.046 c 0,-1.221 0.997,-2.038 2.566,-2.038 1.58,0 2.51,0.672 2.51,1.657 0,0.919 -0.649,1.156 -2.016,1.402 L 1.333,1.277 c -1.288,0.225 -1.916,0.897 -1.916,2.018 0,1.39 1.144,2.342 3.082,2.342 1.972,0 3.138,-0.942 3.183,-2.489 H 4.875 C 4.774,4.28 3.967,4.897 2.522,4.897 1.087,4.897 0.246,4.27 0.246,3.34 0.246,2.487 0.907,2.196 2.264,1.961 l 1.535,-0.27 c 1.469,-0.257 2.129,-0.884 2.129,-2.084 0,-1.545 -1.199,-2.488 -3.282,-2.488 -2.175,0 -3.463,1.076 -3.463,2.758 V 0 Z"
       style="fill:#87888a;fill-opacity:1;fill-rule:nonzero;stroke:none"
       transform="matrix(0.35277776,0,0,-0.35277776,84.599851,158.6629)"
       clip-path="url(#clipPath12)" />
    <path
       id="path13"
       d="m 0,0 h -3.127 v 0.74 h 7.06 V 0 H 0.807 V -7.352 H 0 Z"
       style="fill:#87888a;fill-opacity:1;fill-rule:nonzero;stroke:none"
       transform="matrix(0.35277776,0,0,-0.35277776,88.430771,157.01063)"
       clip-path="url(#clipPath14)" />
    <path
       id="path15"
       d="M 0,0 H 3.877 C 5.806,0 6.78,-0.729 6.78,-2.174 6.78,-3.239 6.354,-3.866 5.379,-4.191 6.298,-4.337 6.512,-4.763 6.623,-5.727 6.746,-6.802 6.68,-7.621 7.016,-8.091 H 6.074 c -0.247,0.739 -0.179,1.547 -0.28,2.364 -0.101,0.829 -0.571,1.11 -1.58,1.11 H 0.808 V -8.091 H 0 Z m 0.808,-0.751 v -3.103 h 2.98 c 1.49,0 2.174,0.414 2.174,1.556 0,1.2 -0.717,1.547 -2.274,1.547 z"
       style="fill:#87888a;fill-opacity:1;fill-rule:nonzero;stroke:none"
       transform="matrix(0.35277776,0,0,-0.35277776,90.557455,156.74947)"
       clip-path="url(#clipPath16)" />
    <path
       id="path17"
       d="m 0,0 -3.484,4.595 h 1.031 L 0.403,0.649 3.296,4.595 H 4.292 L 0.808,0 V -3.496 H 0 Z"
       style="fill:#87888a;fill-opacity:1;fill-rule:nonzero;stroke:none"
       transform="matrix(0.35277776,0,0,-0.35277776,94.886215,158.37041)"
       clip-path="url(#clipPath18)" />
    <path
       id="path19"
       d="m 0,0 c -2.654,0 -4.247,1.625 -4.247,4.26 0,2.633 1.593,4.258 4.247,4.258 2.656,0 4.26,-1.625 4.26,-4.258 C 4.26,1.625 2.656,0 0,0 M 3.431,4.26 C 3.431,6.434 2.142,7.733 0,7.733 -2.14,7.733 -3.429,6.434 -3.429,4.26 -3.429,2.084 -2.14,0.784 0,0.784 c 2.142,0 3.431,1.3 3.431,3.476"
       style="fill:#87888a;fill-opacity:1;fill-rule:nonzero;stroke:none"
       transform="matrix(0.35277776,0,0,-0.35277776,100.21919,159.67918)"
       clip-path="url(#clipPath20)" />
    <path
       id="path21"
       d="M 0,0 H 5.984 V -0.762 H 0.807 V -3.553 H 5.424 V -4.348 H 0.807 V -8.091 H 0 Z"
       style="fill:#87888a;fill-opacity:1;fill-rule:nonzero;stroke:none"
       transform="matrix(0.35277776,0,0,-0.35277776,102.65075,156.74947)"
       clip-path="url(#clipPath22)" />
    <path
       id="path23"
       d="M 0,0 H 6.219 V -0.751 H 0.807 V -3.586 H 5.805 V -4.348 H 0.807 V -7.329 H 6.219 V -8.091 H 0 Z"
       style="fill:#87888a;fill-opacity:1;fill-rule:nonzero;stroke:none"
       transform="matrix(0.35277776,0,0,-0.35277776,107.29976,156.74947)"
       clip-path="url(#clipPath24)" />
    <path
       id="path25"
       d="M 0,0 C 0.896,-0.695 1.3,-1.782 1.3,-3.317 1.3,-4.852 0.896,-5.939 0,-6.634 -0.829,-7.273 -1.872,-7.363 -3.317,-7.363 h -2.949 v 8.092 h 2.949 C -1.872,0.729 -0.829,0.639 0,0 m -5.458,0 v -6.589 h 2.141 c 1.154,0 1.994,0.078 2.656,0.515 0.795,0.527 1.132,1.435 1.132,2.813 0,1.345 -0.36,2.24 -1.132,2.756 C -1.346,-0.056 -2.242,0 -3.497,0 Z"
       style="fill:#87888a;fill-opacity:1;fill-rule:nonzero;stroke:none"
       transform="matrix(0.35277776,0,0,-0.35277776,112.62102,157.00651)"
       clip-path="url(#clipPath26)" />
    <path
       id="path27"
       d="m 0,0 v -4.965 c 0,-1.748 0.817,-2.555 2.7,-2.555 1.883,0 2.712,0.807 2.712,2.555 V 0 H 6.23 v -5.178 c 0,-2.005 -1.244,-3.126 -3.53,-3.126 -2.308,0 -3.518,1.098 -3.518,3.16 V 0 Z"
       style="fill:#87888a;fill-opacity:1;fill-rule:nonzero;stroke:none"
       transform="matrix(0.35277776,0,0,-0.35277776,114.3012,156.74947)"
       clip-path="url(#clipPath28)" />
    <path
       id="path29"
       d="m 0,0 c -2.118,0 -3.418,-1.312 -3.418,-3.475 0,-2.14 1.3,-3.463 3.261,-3.463 1.625,0 2.869,0.942 3.194,2.455 h 0.862 c -0.37,-1.996 -1.917,-3.25 -4.033,-3.25 -2.477,0 -4.102,1.659 -4.102,4.258 0,2.634 1.59,4.259 4.247,4.259 2.107,0 3.496,-1.087 3.754,-2.857 H 2.947 C 2.633,-0.751 1.58,0 0,0"
       style="fill:#87888a;fill-opacity:1;fill-rule:nonzero;stroke:none"
       transform="matrix(0.35277776,0,0,-0.35277776,118.92661,156.95101)"
       clip-path="url(#clipPath30)" />
    <path
       id="path31"
       d="M 0,0 H 0.93 L 4.617,-8.091 H 3.799 L 2.667,-5.592 H -1.76 L -2.902,-8.091 H -3.731 Z M 2.309,-4.808 0.46,-0.673 -1.401,-4.808 Z"
       style="fill:#87888a;fill-opacity:1;fill-rule:nonzero;stroke:none"
       transform="matrix(0.35277776,0,0,-0.35277776,122.18014,156.74947)"
       clip-path="url(#clipPath32)" />
    <path
       id="path33"
       d="M 0,0 H -3.127 V 0.74 H 3.934 V 0 H 0.808 V -7.352 H 0 Z"
       style="fill:#87888a;fill-opacity:1;fill-rule:nonzero;stroke:none"
       transform="matrix(0.35277776,0,0,-0.35277776,125.0382,157.01063)"
       clip-path="url(#clipPath34)" />
    <path
       id="path35"
       d="m 321.898,340.46 h 0.807 v -8.091 h -0.807 z"
       style="fill:#87888a;fill-opacity:1;fill-rule:nonzero;stroke:none"
       transform="matrix(0.35277776,0,0,-0.35277776,13.626219,276.85619)"
       clip-path="url(#clipPath36)" />
    <path
       id="path37"
       d="m 0,0 c -2.656,0 -4.247,1.625 -4.247,4.26 0,2.633 1.591,4.258 4.247,4.258 2.656,0 4.259,-1.625 4.259,-4.258 C 4.259,1.625 2.656,0 0,0 M 3.429,4.26 C 3.429,6.434 2.14,7.733 0,7.733 c -2.141,0 -3.429,-1.299 -3.429,-3.473 0,-2.176 1.288,-3.476 3.429,-3.476 2.14,0 3.429,1.3 3.429,3.476"
       style="fill:#87888a;fill-opacity:1;fill-rule:nonzero;stroke:none"
       transform="matrix(0.35277776,0,0,-0.35277776,129.9168,159.67918)"
       clip-path="url(#clipPath38)" />
    <path
       id="path39"
       d="m 0,0 h 1.031 l 5.66,-7.262 V 0 H 7.475 V -8.091 H 6.399 L 0.784,-0.829 V -8.091 H 0 Z"
       style="fill:#87888a;fill-opacity:1;fill-rule:nonzero;stroke:none"
       transform="matrix(0.35277776,0,0,-0.35277776,132.34801,156.74947)"
       clip-path="url(#clipPath40)" />
    <path
       id="path41"
       d="M 0,0 H 0.908 V -1.312 C 0.908,-2.097 0.706,-2.499 0,-2.734 v 0.514 c 0.303,0.157 0.402,0.381 0.402,0.751 v 0.483 H 0 Z"
       style="fill:#87888a;fill-opacity:1;fill-rule:nonzero;stroke:none"
       transform="matrix(0.35277776,0,0,-0.35277776,136.2027,159.25578)"
       clip-path="url(#clipPath42)" />
    <path
       id="path43"
       d="m 0,0 -2.893,3.814 h 0.857 l 2.371,-3.275 2.4,3.275 H 3.563 L 0.671,0 V -2.901 H 0 Z"
       style="fill:#87888a;fill-opacity:1;fill-rule:nonzero;stroke:none"
       transform="matrix(0.35277776,0,0,-0.35277776,85.831116,162.52829)"
       clip-path="url(#clipPath44)" />
    <path
       id="path45"
       d="M 0,0 C -2.205,0 -3.526,1.349 -3.526,3.535 -3.526,5.721 -2.205,7.07 0,7.07 2.205,7.07 3.535,5.721 3.535,3.535 3.535,1.349 2.205,0 0,0 M 2.846,3.535 C 2.846,5.34 1.777,6.419 0,6.419 -1.777,6.419 -2.846,5.34 -2.846,3.535 -2.846,1.73 -1.777,0.651 0,0.651 c 1.777,0 2.846,1.079 2.846,2.884"
       style="fill:#87888a;fill-opacity:1;fill-rule:nonzero;stroke:none"
       transform="matrix(0.35277776,0,0,-0.35277776,88.679866,163.61453)"
       clip-path="url(#clipPath46)" />
    <path
       id="path47"
       d="m 0,0 v -4.121 c 0,-1.451 0.679,-2.121 2.242,-2.121 1.562,0 2.251,0.67 2.251,2.121 V 0 h 0.679 v -4.298 c 0,-1.665 -1.033,-2.596 -2.93,-2.596 -1.917,0 -2.921,0.913 -2.921,2.623 V 0 Z"
       style="fill:#87888a;fill-opacity:1;fill-rule:nonzero;stroke:none"
       transform="matrix(0.35277776,0,0,-0.35277776,90.875415,161.18262)"
       clip-path="url(#clipPath48)" />
    <path
       id="path49"
       d="m 0,0 h -2.595 v 0.614 h 5.86 V 0 H 0.669 V -6.103 H 0 Z"
       style="fill:#87888a;fill-opacity:1;fill-rule:nonzero;stroke:none"
       transform="matrix(0.35277776,0,0,-0.35277776,94.166866,161.39933)"
       clip-path="url(#clipPath50)" />
    <path
       id="path51"
       d="M 0,0 H 0.67 V -2.8 H 5.042 V 0 h 0.67 v -6.716 h -0.67 v 3.274 H 0.67 V -6.716 H 0 Z"
       style="fill:#87888a;fill-opacity:1;fill-rule:nonzero;stroke:none"
       transform="matrix(0.35277776,0,0,-0.35277776,95.86669,161.18262)"
       clip-path="url(#clipPath52)" />
    <path
       id="path53"
       d="M 0,0 H 0.772 L 3.833,-6.716 H 3.154 l -0.939,2.073 h -3.676 l -0.947,-2.073 h -0.69 z m 1.916,-3.991 -1.534,3.432 -1.543,-3.432 z"
       style="fill:#87888a;fill-opacity:1;fill-rule:nonzero;stroke:none"
       transform="matrix(0.35277776,0,0,-0.35277776,100.87102,161.18262)"
       clip-path="url(#clipPath54)" />
    <path
       id="path55"
       d="M 0,0 H 0.856 L 5.555,-6.028 V 0 H 6.204 V -6.716 H 5.312 L 0.651,-0.689 V -6.716 H 0 Z"
       style="fill:#87888a;fill-opacity:1;fill-rule:nonzero;stroke:none"
       transform="matrix(0.35277776,0,0,-0.35277776,102.79408,161.18262)"
       clip-path="url(#clipPath56)" />
    <path
       id="path57"
       d="M 0,0 C 0.744,-0.577 1.079,-1.479 1.079,-2.753 1.079,-4.028 0.744,-4.931 0,-5.507 -0.688,-6.037 -1.554,-6.112 -2.754,-6.112 H -5.2 v 6.716 h 2.446 C -1.554,0.604 -0.688,0.529 0,0 m -4.531,0 v -5.471 h 1.777 c 0.958,0 1.656,0.066 2.205,0.429 0.66,0.437 0.94,1.189 0.94,2.335 0,1.116 -0.298,1.859 -0.94,2.288 C -1.117,-0.047 -1.861,0 -2.903,0 Z"
       style="fill:#87888a;fill-opacity:1;fill-rule:nonzero;stroke:none"
       transform="matrix(0.35277776,0,0,-0.35277776,107.64114,161.39587)"
       clip-path="url(#clipPath58)" />
    <path
       id="path59"
       d="m 0,0 v -0.037 c 0,-1.014 0.828,-1.692 2.13,-1.692 1.312,0 2.084,0.557 2.084,1.376 0,0.763 -0.54,0.958 -1.675,1.162 L 1.107,1.062 c -1.07,0.185 -1.59,0.743 -1.59,1.673 0,1.153 0.948,1.944 2.557,1.944 1.638,0 2.605,-0.781 2.643,-2.065 H 4.047 C 3.963,3.554 3.293,4.065 2.093,4.065 0.903,4.065 0.205,3.544 0.205,2.773 0.205,2.065 0.754,1.824 1.879,1.628 L 3.154,1.405 c 1.218,-0.214 1.767,-0.735 1.767,-1.73 0,-1.284 -0.995,-2.066 -2.725,-2.066 -1.805,0 -2.875,0.893 -2.875,2.289 V 0 Z"
       style="fill:#87888a;fill-opacity:1;fill-rule:nonzero;stroke:none"
       transform="matrix(0.35277776,0,0,-0.35277776,110.20397,162.77118)"
       clip-path="url(#clipPath60)" />
    <path
       id="path61"
       d="M 0,0 H 2.734 C 4.391,0 5.21,-0.624 5.21,-1.982 5.21,-3.34 4.391,-3.963 2.734,-3.963 H 0.67 V -6.716 H 0 Z m 2.614,-3.313 c 1.302,0 1.889,0.271 1.889,1.341 0,1.07 -0.587,1.348 -1.889,1.348 H 0.67 v -2.689 z"
       style="fill:#87888a;fill-opacity:1;fill-rule:nonzero;stroke:none"
       transform="matrix(0.35277776,0,0,-0.35277776,112.67514,161.18262)"
       clip-path="url(#clipPath62)" />
    <path
       id="path63"
       d="M 0,0 C -2.205,0 -3.525,1.349 -3.525,3.535 -3.525,5.721 -2.205,7.07 0,7.07 2.205,7.07 3.535,5.721 3.535,3.535 3.535,1.349 2.205,0 0,0 M 2.847,3.535 C 2.847,5.34 1.776,6.419 0,6.419 c -1.777,0 -2.847,-1.079 -2.847,-2.884 0,-1.805 1.07,-2.884 2.847,-2.884 1.776,0 2.847,1.079 2.847,2.884"
       style="fill:#87888a;fill-opacity:1;fill-rule:nonzero;stroke:none"
       transform="matrix(0.35277776,0,0,-0.35277776,116.32106,163.61453)"
       clip-path="url(#clipPath64)" />
    <path
       id="path65"
       d="m 0,0 h 3.22 c 1.599,0 2.409,-0.605 2.409,-1.805 0,-0.884 -0.355,-1.404 -1.163,-1.674 0.763,-0.122 0.939,-0.475 1.032,-1.275 0.103,-0.893 0.047,-1.572 0.325,-1.962 H 5.042 C 4.838,-6.104 4.894,-5.434 4.81,-4.754 4.727,-4.065 4.335,-3.833 3.498,-3.833 H 0.671 V -6.716 H 0 Z M 0.671,-0.624 V -3.2 h 2.474 c 1.237,0 1.804,0.344 1.804,1.293 0,0.995 -0.595,1.283 -1.887,1.283 z"
       style="fill:#87888a;fill-opacity:1;fill-rule:nonzero;stroke:none"
       transform="matrix(0.35277776,0,0,-0.35277776,118.27341,161.18262)"
       clip-path="url(#clipPath66)" />
    <path
       id="path67"
       d="M 0,0 H -2.596 V 0.614 H 3.265 V 0 H 0.67 V -6.103 H 0 Z"
       style="fill:#87888a;fill-opacity:1;fill-rule:nonzero;stroke:none"
       transform="matrix(0.35277776,0,0,-0.35277776,121.66371,161.39933)"
       clip-path="url(#clipPath68)" />
    <path
       id="path69"
       d="m 0,0 v -0.037 c 0,-1.014 0.828,-1.692 2.13,-1.692 1.311,0 2.084,0.557 2.084,1.376 0,0.763 -0.54,0.958 -1.675,1.162 L 1.107,1.062 c -1.07,0.185 -1.591,0.743 -1.591,1.673 0,1.153 0.949,1.944 2.558,1.944 1.637,0 2.605,-0.781 2.642,-2.065 H 4.046 C 3.963,3.554 3.293,4.065 2.093,4.065 0.902,4.065 0.205,3.544 0.205,2.773 0.205,2.065 0.753,1.824 1.879,1.628 L 3.153,1.405 c 1.219,-0.214 1.768,-0.735 1.768,-1.73 0,-1.284 -0.996,-2.066 -2.726,-2.066 -1.804,0 -2.875,0.893 -2.875,2.289 V 0 Z"
       style="fill:#87888a;fill-opacity:1;fill-rule:nonzero;stroke:none"
       transform="matrix(0.35277776,0,0,-0.35277776,123.51441,162.77118)"
       clip-path="url(#clipPath70)" />
    <path
       id="path71"
       d="M 0,0 H 1.289 L 4.707,-7.341 8.17,0 H 9.357 V -8.091 H 8.563 l 0.033,7.396 -3.43,-7.396 h -0.93 l -3.519,7.396 0.08,-7.396 H 0 Z"
       style="fill:#87888a;fill-opacity:1;fill-rule:nonzero;stroke:none"
       transform="matrix(0.35277776,0,0,-0.35277776,73.554166,156.74947)"
       clip-path="url(#clipPath72)" />
    <path
       id="path73"
       d="m 182.325,340.46 h 0.808 v -8.091 h -0.808 z"
       style="fill:#87888a;fill-opacity:1;fill-rule:nonzero;stroke:none"
       transform="matrix(0.35277776,0,0,-0.35277776,13.626219,276.85619)"
       clip-path="url(#clipPath74)" />
    <path
       id="path75"
       d="M 0,0 H 1.031 L 6.69,-7.262 V 0 H 7.476 V -8.091 H 6.399 L 0.784,-0.829 V -8.091 H 0 Z"
       style="fill:#87888a;fill-opacity:1;fill-rule:nonzero;stroke:none"
       transform="matrix(0.35277776,0,0,-0.35277776,79.318167,156.74947)"
       clip-path="url(#clipPath76)" />
    <path
       id="path77"
       d="m 196.781,340.46 h 0.808 v -8.091 h -0.808 z"
       style="fill:#87888a;fill-opacity:1;fill-rule:nonzero;stroke:none"
       transform="matrix(0.35277776,0,0,-0.35277776,13.626219,276.85619)"
       clip-path="url(#clipPath78)" />
    <path
       id="path79"
       d="m 0,0 v -0.046 c 0,-1.221 0.997,-2.038 2.566,-2.038 1.58,0 2.51,0.672 2.51,1.657 0,0.919 -0.649,1.156 -2.016,1.402 L 1.333,1.277 c -1.288,0.225 -1.916,0.897 -1.916,2.018 0,1.39 1.144,2.342 3.082,2.342 1.972,0 3.138,-0.942 3.183,-2.489 H 4.875 C 4.774,4.28 3.967,4.897 2.522,4.897 1.087,4.897 0.246,4.27 0.246,3.34 0.246,2.487 0.907,2.196 2.264,1.961 l 1.535,-0.27 c 1.469,-0.257 2.129,-0.884 2.129,-2.084 0,-1.545 -1.199,-2.488 -3.282,-2.488 -2.175,0 -3.463,1.076 -3.463,2.758 V 0 Z"
       style="fill:#87888a;fill-opacity:1;fill-rule:nonzero;stroke:none"
       transform="matrix(0.35277776,0,0,-0.35277776,84.599851,158.6629)"
       clip-path="url(#clipPath80)" />
    <path
       id="path81"
       d="m 0,0 h -3.127 v 0.74 h 7.06 V 0 H 0.807 V -7.352 H 0 Z"
       style="fill:#87888a;fill-opacity:1;fill-rule:nonzero;stroke:none"
       transform="matrix(0.35277776,0,0,-0.35277776,88.430771,157.01063)"
       clip-path="url(#clipPath82)" />
    <path
       id="path83"
       d="M 0,0 H 3.877 C 5.806,0 6.78,-0.729 6.78,-2.174 6.78,-3.239 6.354,-3.866 5.379,-4.191 6.298,-4.337 6.512,-4.763 6.623,-5.727 6.746,-6.802 6.68,-7.621 7.016,-8.091 H 6.074 c -0.247,0.739 -0.179,1.547 -0.28,2.364 -0.101,0.829 -0.571,1.11 -1.58,1.11 H 0.808 V -8.091 H 0 Z m 0.808,-0.751 v -3.103 h 2.98 c 1.49,0 2.174,0.414 2.174,1.556 0,1.2 -0.717,1.547 -2.274,1.547 z"
       style="fill:#87888a;fill-opacity:1;fill-rule:nonzero;stroke:none"
       transform="matrix(0.35277776,0,0,-0.35277776,90.557455,156.74947)"
       clip-path="url(#clipPath84)" />
    <path
       id="path85"
       d="m 0,0 -3.484,4.595 h 1.031 L 0.403,0.649 3.296,4.595 H 4.292 L 0.808,0 V -3.496 H 0 Z"
       style="fill:#87888a;fill-opacity:1;fill-rule:nonzero;stroke:none"
       transform="matrix(0.35277776,0,0,-0.35277776,94.886215,158.37041)"
       clip-path="url(#clipPath86)" />
    <path
       id="path87"
       d="m 0,0 c -2.654,0 -4.247,1.625 -4.247,4.26 0,2.633 1.593,4.258 4.247,4.258 2.656,0 4.26,-1.625 4.26,-4.258 C 4.26,1.625 2.656,0 0,0 M 3.431,4.26 C 3.431,6.434 2.142,7.733 0,7.733 -2.14,7.733 -3.429,6.434 -3.429,4.26 -3.429,2.084 -2.14,0.784 0,0.784 c 2.142,0 3.431,1.3 3.431,3.476"
       style="fill:#87888a;fill-opacity:1;fill-rule:nonzero;stroke:none"
       transform="matrix(0.35277776,0,0,-0.35277776,100.21919,159.67918)"
       clip-path="url(#clipPath88)" />
    <path
       id="path89"
       d="M 0,0 H 5.984 V -0.762 H 0.807 V -3.553 H 5.424 V -4.348 H 0.807 V -8.091 H 0 Z"
       style="fill:#87888a;fill-opacity:1;fill-rule:nonzero;stroke:none"
       transform="matrix(0.35277776,0,0,-0.35277776,102.65075,156.74947)"
       clip-path="url(#clipPath90)" />
    <path
       id="path91"
       d="M 0,0 H 6.219 V -0.751 H 0.807 V -3.586 H 5.805 V -4.348 H 0.807 V -7.329 H 6.219 V -8.091 H 0 Z"
       style="fill:#87888a;fill-opacity:1;fill-rule:nonzero;stroke:none"
       transform="matrix(0.35277776,0,0,-0.35277776,107.29976,156.74947)"
       clip-path="url(#clipPath92)" />
    <path
       id="path93"
       d="M 0,0 C 0.896,-0.695 1.3,-1.782 1.3,-3.317 1.3,-4.852 0.896,-5.939 0,-6.634 -0.829,-7.273 -1.872,-7.363 -3.317,-7.363 h -2.949 v 8.092 h 2.949 C -1.872,0.729 -0.829,0.639 0,0 m -5.458,0 v -6.589 h 2.141 c 1.154,0 1.994,0.078 2.656,0.515 0.795,0.527 1.132,1.435 1.132,2.813 0,1.345 -0.36,2.24 -1.132,2.756 C -1.346,-0.056 -2.242,0 -3.497,0 Z"
       style="fill:#87888a;fill-opacity:1;fill-rule:nonzero;stroke:none"
       transform="matrix(0.35277776,0,0,-0.35277776,112.62102,157.00651)"
       clip-path="url(#clipPath94)" />
    <path
       id="path95"
       d="m 0,0 v -4.965 c 0,-1.748 0.817,-2.555 2.7,-2.555 1.883,0 2.712,0.807 2.712,2.555 V 0 H 6.23 v -5.178 c 0,-2.005 -1.244,-3.126 -3.53,-3.126 -2.308,0 -3.518,1.098 -3.518,3.16 V 0 Z"
       style="fill:#87888a;fill-opacity:1;fill-rule:nonzero;stroke:none"
       transform="matrix(0.35277776,0,0,-0.35277776,114.3012,156.74947)"
       clip-path="url(#clipPath96)" />
    <path
       id="path97"
       d="m 0,0 c -2.118,0 -3.418,-1.312 -3.418,-3.475 0,-2.14 1.3,-3.463 3.261,-3.463 1.625,0 2.869,0.942 3.194,2.455 h 0.862 c -0.37,-1.996 -1.917,-3.25 -4.033,-3.25 -2.477,0 -4.102,1.659 -4.102,4.258 0,2.634 1.59,4.259 4.247,4.259 2.107,0 3.496,-1.087 3.754,-2.857 H 2.947 C 2.633,-0.751 1.58,0 0,0"
       style="fill:#87888a;fill-opacity:1;fill-rule:nonzero;stroke:none"
       transform="matrix(0.35277776,0,0,-0.35277776,118.92661,156.95101)"
       clip-path="url(#clipPath98)" />
    <path
       id="path99"
       d="M 0,0 H 0.93 L 4.617,-8.091 H 3.799 L 2.667,-5.592 H -1.76 L -2.902,-8.091 H -3.731 Z M 2.309,-4.808 0.46,-0.673 -1.401,-4.808 Z"
       style="fill:#87888a;fill-opacity:1;fill-rule:nonzero;stroke:none"
       transform="matrix(0.35277776,0,0,-0.35277776,122.18014,156.74947)"
       clip-path="url(#clipPath100)" />
    <path
       id="path101"
       d="M 0,0 H -3.127 V 0.74 H 3.934 V 0 H 0.808 V -7.352 H 0 Z"
       style="fill:#87888a;fill-opacity:1;fill-rule:nonzero;stroke:none"
       transform="matrix(0.35277776,0,0,-0.35277776,125.0382,157.01063)"
       clip-path="url(#clipPath102)" />
    <path
       id="path103"
       d="m 321.898,340.46 h 0.807 v -8.091 h -0.807 z"
       style="fill:#87888a;fill-opacity:1;fill-rule:nonzero;stroke:none"
       transform="matrix(0.35277776,0,0,-0.35277776,13.626219,276.85619)"
       clip-path="url(#clipPath104)" />
    <path
       id="path105"
       d="m 0,0 c -2.656,0 -4.247,1.625 -4.247,4.26 0,2.633 1.591,4.258 4.247,4.258 2.656,0 4.259,-1.625 4.259,-4.258 C 4.259,1.625 2.656,0 0,0 M 3.429,4.26 C 3.429,6.434 2.14,7.733 0,7.733 c -2.141,0 -3.429,-1.299 -3.429,-3.473 0,-2.176 1.288,-3.476 3.429,-3.476 2.14,0 3.429,1.3 3.429,3.476"
       style="fill:#87888a;fill-opacity:1;fill-rule:nonzero;stroke:none"
       transform="matrix(0.35277776,0,0,-0.35277776,129.9168,159.67918)"
       clip-path="url(#clipPath106)" />
    <path
       id="path107"
       d="m 0,0 h 1.031 l 5.66,-7.262 V 0 H 7.475 V -8.091 H 6.399 L 0.784,-0.829 V -8.091 H 0 Z"
       style="fill:#87888a;fill-opacity:1;fill-rule:nonzero;stroke:none"
       transform="matrix(0.35277776,0,0,-0.35277776,132.34801,156.74947)"
       clip-path="url(#clipPath108)" />
    <path
       id="path109"
       d="M 0,0 H 0.908 V -1.312 C 0.908,-2.097 0.706,-2.499 0,-2.734 v 0.514 c 0.303,0.157 0.402,0.381 0.402,0.751 v 0.483 H 0 Z"
       style="fill:#87888a;fill-opacity:1;fill-rule:nonzero;stroke:none"
       transform="matrix(0.35277776,0,0,-0.35277776,136.2027,159.25578)"
       clip-path="url(#clipPath110)" />
    <path
       id="path111"
       d="m 0,0 -2.893,3.814 h 0.857 l 2.371,-3.275 2.4,3.275 H 3.563 L 0.671,0 V -2.901 H 0 Z"
       style="fill:#87888a;fill-opacity:1;fill-rule:nonzero;stroke:none"
       transform="matrix(0.35277776,0,0,-0.35277776,85.831116,162.52829)"
       clip-path="url(#clipPath112)" />
    <path
       id="path113"
       d="M 0,0 C -2.205,0 -3.526,1.349 -3.526,3.535 -3.526,5.721 -2.205,7.07 0,7.07 2.205,7.07 3.535,5.721 3.535,3.535 3.535,1.349 2.205,0 0,0 M 2.846,3.535 C 2.846,5.34 1.777,6.419 0,6.419 -1.777,6.419 -2.846,5.34 -2.846,3.535 -2.846,1.73 -1.777,0.651 0,0.651 c 1.777,0 2.846,1.079 2.846,2.884"
       style="fill:#87888a;fill-opacity:1;fill-rule:nonzero;stroke:none"
       transform="matrix(0.35277776,0,0,-0.35277776,88.679866,163.61453)"
       clip-path="url(#clipPath114)" />
    <path
       id="path115"
       d="m 0,0 v -4.121 c 0,-1.451 0.679,-2.121 2.242,-2.121 1.562,0 2.251,0.67 2.251,2.121 V 0 h 0.679 v -4.298 c 0,-1.665 -1.033,-2.596 -2.93,-2.596 -1.917,0 -2.921,0.913 -2.921,2.623 V 0 Z"
       style="fill:#87888a;fill-opacity:1;fill-rule:nonzero;stroke:none"
       transform="matrix(0.35277776,0,0,-0.35277776,90.875415,161.18262)"
       clip-path="url(#clipPath116)" />
    <path
       id="path117"
       d="m 0,0 h -2.595 v 0.614 h 5.86 V 0 H 0.669 V -6.103 H 0 Z"
       style="fill:#87888a;fill-opacity:1;fill-rule:nonzero;stroke:none"
       transform="matrix(0.35277776,0,0,-0.35277776,94.166866,161.39933)"
       clip-path="url(#clipPath118)" />
    <path
       id="path119"
       d="M 0,0 H 0.67 V -2.8 H 5.042 V 0 h 0.67 v -6.716 h -0.67 v 3.274 H 0.67 V -6.716 H 0 Z"
       style="fill:#87888a;fill-opacity:1;fill-rule:nonzero;stroke:none"
       transform="matrix(0.35277776,0,0,-0.35277776,95.86669,161.18262)"
       clip-path="url(#clipPath120)" />
    <path
       id="path121"
       d="M 0,0 H 0.772 L 3.833,-6.716 H 3.154 l -0.939,2.073 h -3.676 l -0.947,-2.073 h -0.69 z m 1.916,-3.991 -1.534,3.432 -1.543,-3.432 z"
       style="fill:#87888a;fill-opacity:1;fill-rule:nonzero;stroke:none"
       transform="matrix(0.35277776,0,0,-0.35277776,100.87102,161.18262)"
       clip-path="url(#clipPath122)" />
    <path
       id="path123"
       d="M 0,0 H 0.856 L 5.555,-6.028 V 0 H 6.204 V -6.716 H 5.312 L 0.651,-0.689 V -6.716 H 0 Z"
       style="fill:#87888a;fill-opacity:1;fill-rule:nonzero;stroke:none"
       transform="matrix(0.35277776,0,0,-0.35277776,102.79408,161.18262)"
       clip-path="url(#clipPath124)" />
    <path
       id="path125"
       d="M 0,0 C 0.744,-0.577 1.079,-1.479 1.079,-2.753 1.079,-4.028 0.744,-4.931 0,-5.507 -0.688,-6.037 -1.554,-6.112 -2.754,-6.112 H -5.2 v 6.716 h 2.446 C -1.554,0.604 -0.688,0.529 0,0 m -4.531,0 v -5.471 h 1.777 c 0.958,0 1.656,0.066 2.205,0.429 0.66,0.437 0.94,1.189 0.94,2.335 0,1.116 -0.298,1.859 -0.94,2.288 C -1.117,-0.047 -1.861,0 -2.903,0 Z"
       style="fill:#87888a;fill-opacity:1;fill-rule:nonzero;stroke:none"
       transform="matrix(0.35277776,0,0,-0.35277776,107.64114,161.39587)"
       clip-path="url(#clipPath126)" />
    <path
       id="path127"
       d="m 0,0 v -0.037 c 0,-1.014 0.828,-1.692 2.13,-1.692 1.312,0 2.084,0.557 2.084,1.376 0,0.763 -0.54,0.958 -1.675,1.162 L 1.107,1.062 c -1.07,0.185 -1.59,0.743 -1.59,1.673 0,1.153 0.948,1.944 2.557,1.944 1.638,0 2.605,-0.781 2.643,-2.065 H 4.047 C 3.963,3.554 3.293,4.065 2.093,4.065 0.903,4.065 0.205,3.544 0.205,2.773 0.205,2.065 0.754,1.824 1.879,1.628 L 3.154,1.405 c 1.218,-0.214 1.767,-0.735 1.767,-1.73 0,-1.284 -0.995,-2.066 -2.725,-2.066 -1.805,0 -2.875,0.893 -2.875,2.289 V 0 Z"
       style="fill:#87888a;fill-opacity:1;fill-rule:nonzero;stroke:none"
       transform="matrix(0.35277776,0,0,-0.35277776,110.20397,162.77118)"
       clip-path="url(#clipPath128)" />
    <path
       id="path129"
       d="M 0,0 H 2.734 C 4.391,0 5.21,-0.624 5.21,-1.982 5.21,-3.34 4.391,-3.963 2.734,-3.963 H 0.67 V -6.716 H 0 Z m 2.614,-3.313 c 1.302,0 1.889,0.271 1.889,1.341 0,1.07 -0.587,1.348 -1.889,1.348 H 0.67 v -2.689 z"
       style="fill:#87888a;fill-opacity:1;fill-rule:nonzero;stroke:none"
       transform="matrix(0.35277776,0,0,-0.35277776,112.67514,161.18262)"
       clip-path="url(#clipPath130)" />
    <path
       id="path131"
       d="M 0,0 C -2.205,0 -3.525,1.349 -3.525,3.535 -3.525,5.721 -2.205,7.07 0,7.07 2.205,7.07 3.535,5.721 3.535,3.535 3.535,1.349 2.205,0 0,0 M 2.847,3.535 C 2.847,5.34 1.776,6.419 0,6.419 c -1.777,0 -2.847,-1.079 -2.847,-2.884 0,-1.805 1.07,-2.884 2.847,-2.884 1.776,0 2.847,1.079 2.847,2.884"
       style="fill:#87888a;fill-opacity:1;fill-rule:nonzero;stroke:none"
       transform="matrix(0.35277776,0,0,-0.35277776,116.32106,163.61453)"
       clip-path="url(#clipPath132)" />
    <path
       id="path133"
       d="m 0,0 h 3.22 c 1.599,0 2.409,-0.605 2.409,-1.805 0,-0.884 -0.355,-1.404 -1.163,-1.674 0.763,-0.122 0.939,-0.475 1.032,-1.275 0.103,-0.893 0.047,-1.572 0.325,-1.962 H 5.042 C 4.838,-6.104 4.894,-5.434 4.81,-4.754 4.727,-4.065 4.335,-3.833 3.498,-3.833 H 0.671 V -6.716 H 0 Z M 0.671,-0.624 V -3.2 h 2.474 c 1.237,0 1.804,0.344 1.804,1.293 0,0.995 -0.595,1.283 -1.887,1.283 z"
       style="fill:#87888a;fill-opacity:1;fill-rule:nonzero;stroke:none"
       transform="matrix(0.35277776,0,0,-0.35277776,118.27341,161.18262)"
       clip-path="url(#clipPath134)" />
    <path
       id="path135"
       d="M 0,0 H -2.596 V 0.614 H 3.265 V 0 H 0.67 V -6.103 H 0 Z"
       style="fill:#87888a;fill-opacity:1;fill-rule:nonzero;stroke:none"
       transform="matrix(0.35277776,0,0,-0.35277776,121.66371,161.39933)"
       clip-path="url(#clipPath136)" />
    <path
       id="path137"
       d="m 0,0 v -0.037 c 0,-1.014 0.828,-1.692 2.13,-1.692 1.311,0 2.084,0.557 2.084,1.376 0,0.763 -0.54,0.958 -1.675,1.162 L 1.107,1.062 c -1.07,0.185 -1.591,0.743 -1.591,1.673 0,1.153 0.949,1.944 2.558,1.944 1.637,0 2.605,-0.781 2.642,-2.065 H 4.046 C 3.963,3.554 3.293,4.065 2.093,4.065 0.902,4.065 0.205,3.544 0.205,2.773 0.205,2.065 0.753,1.824 1.879,1.628 L 3.153,1.405 c 1.219,-0.214 1.768,-0.735 1.768,-1.73 0,-1.284 -0.996,-2.066 -2.726,-2.066 -1.804,0 -2.875,0.893 -2.875,2.289 V 0 Z"
       style="fill:#87888a;fill-opacity:1;fill-rule:nonzero;stroke:none"
       transform="matrix(0.35277776,0,0,-0.35277776,123.51441,162.77118)"
       clip-path="url(#clipPath138)" />
  </g>
</svg>
