<?xml version="1.0" encoding="UTF-8" standalone="no"?>
<!-- Created with Inkscape (http://www.inkscape.org/) -->

<svg
   width="50.852707mm"
   height="7.4610429mm"
   viewBox="1 1 50.853 7.4610859"
   version="1.1"
   id="svg5"
   inkscape:version="1.3.2 (091e20e, 2023-11-25, custom)"
   sodipodi:docname="harmonize.svg"
   xmlns:inkscape="http://www.inkscape.org/namespaces/inkscape"
   xmlns:sodipodi="http://sodipodi.sourceforge.net/DTD/sodipodi-0.dtd"
   xmlns="http://www.w3.org/2000/svg"
   xmlns:svg="http://www.w3.org/2000/svg">
  <sodipodi:namedview
     id="namedview7"
     pagecolor="#ffffff"
     bordercolor="#666666"
     borderopacity="1.0"
     inkscape:pageshadow="2"
     inkscape:pageopacity="0.0"
     inkscape:pagecheckerboard="0"
     inkscape:document-units="mm"
     showgrid="false"
     inkscape:zoom="6.2217172"
     inkscape:cx="14.224369"
     inkscape:cy="41.548015"
     inkscape:window-width="3440"
     inkscape:window-height="1369"
     inkscape:window-x="1912"
     inkscape:window-y="-8"
     inkscape:window-maximized="1"
     inkscape:current-layer="layer1"
     inkscape:showpageshadow="2"
     inkscape:deskcolor="#d1d1d1"
     showguides="true" />
  <defs
     id="defs2" />
  <g
     inkscape:label="Warstwa 1"
     inkscape:groupmode="layer"
     id="layer1"
     transform="translate(-37.632267,-65.756649)">
    <path
       id="text8174"
       style="font-size:10.5833px;line-height:1.25;font-family:'MBF Canno';-inkscape-font-specification:'MBF Canno, Normal';fill:#666666;stroke-width:0.264583"
       d="m 38.632267,66.756649 v 7.408333 h 1.089856 v -3.175 h 4.307748 v 3.175 h 1.089856 v -7.408333 h -1.089856 v 3.143477 h -4.307748 v -3.143477 z m 28.606523,2.074292 c -1.48166,0 -2.667021,1.217131 -2.667021,2.688208 0,1.481658 1.185361,2.698543 2.667021,2.698543 1.471075,0 2.656685,-1.216885 2.656685,-2.698543 0,-1.471077 -1.18561,-2.688208 -2.656685,-2.688208 z m 19.568831,0 c -1.492241,0 -2.677872,1.206548 -2.677872,2.688208 0,1.481658 1.185631,2.677356 2.677872,2.677356 1.121828,0 2.095337,-0.708675 2.476335,-1.69292 h -1.132231 c -0.804328,1.090078 -2.487355,0.782996 -2.921268,-0.434082 h 4.190958 c 0.04233,-0.179916 0.06356,-0.359855 0.06356,-0.550354 0,-1.48166 -1.206279,-2.688208 -2.677356,-2.688208 z m -9.789583,0.03152 v 5.302519 h 1.026294 v -5.302519 z m -22.500435,0.01085 c -1.259411,0 -2.275314,1.026487 -2.275314,2.275314 v 3.016353 H 53.2691 v -3.016353 c 0,-0.687914 0.560588,-1.248503 1.248503,-1.248503 h 1.047998 v -1.026811 z m 4.127913,0 c -1.121828,0 -2.021582,0.91009 -2.021582,2.031918 v 3.259749 h 1.026294 v -3.259749 c 0,-0.560915 0.444958,-1.005107 0.995288,-1.005107 0.560913,0 1.015959,0.444192 1.015959,1.005107 v 3.259749 h 1.026294 v -3.259749 c 0,-0.560915 0.444439,-1.005107 0.994771,-1.005107 0.571496,0 1.015959,0.444192 1.015959,1.005107 v 3.259749 h 1.02681 v -3.259749 c 0,-1.121828 -0.910358,-2.031918 -2.042769,-2.031918 -0.603248,0 -1.142671,0.264731 -1.513086,0.677478 -0.359832,-0.412747 -0.910109,-0.677478 -1.523938,-0.677478 z m 14.71073,0 c -1.44991,0 -2.614311,1.174986 -2.614311,2.614311 v 1.422652 h 1.026811 v -1.422652 c 0,-0.878412 0.698505,-1.5875 1.5875,-1.5875 0.878412,0 1.576648,0.709088 1.576648,1.5875 v 1.412317 h 1.026811 v -1.412317 c 0,-1.439325 -1.164135,-2.614311 -2.603459,-2.614311 z m -24.775749,0.01034 c -1.449908,0 -2.613794,1.227696 -2.613794,2.66702 0,1.449911 1.163886,2.614311 2.613794,2.614311 v -1.026811 c -0.888995,0 -1.5875,-0.709086 -1.5875,-1.5875 0,-0.878411 0.698505,-1.64021 1.5875,-1.64021 0.878412,0 1.577165,0.761799 1.577165,1.64021 v 2.074292 0.540019 h 1.026294 v -2.614311 c 0,-1.439324 -1.164132,-2.66702 -2.603459,-2.66702 z m 30.522168,0 v 1.02681 H 81.8441 l -2.656685,3.376022 v 0.888834 h 4.042647 v -1.026294 h -2.603459 l 2.656686,-3.397208 V 68.883651 Z M 67.23879,69.76215 c 0.963078,0 1.724959,0.79392 1.724959,1.756999 0,0.973661 -0.761881,1.767334 -1.724959,1.767334 -0.973661,0 -1.724959,-0.793673 -1.724959,-1.767334 0,-0.963079 0.751298,-1.756999 1.724959,-1.756999 z m 19.59932,0.09147 c 0.678654,-0.0013 1.345366,0.400642 1.578199,1.210262 h -3.228227 c 0.280457,-0.804329 0.971376,-1.208939 1.650028,-1.210262 z" />
    <rect
       style="fill:#00ff00;fill-opacity:0.501812;stroke-width:2.91754;stroke-linecap:round"
       id="rect20010-4"
       width="1.0206186"
       height="0.92373753"
       x="74.930412"
       y="73.230583" />
    <rect
       style="fill:#00ff00;fill-opacity:0.501812;stroke-width:2.96465;stroke-linecap:round"
       id="rect20010"
       width="1.0206186"
       height="0.95380777"
       x="70.741623"
       y="73.211143" />
  </g>
</svg>
