<?xml version="1.0" encoding="UTF-8" standalone="no"?>
<!-- Created with Inkscape (http://www.inkscape.org/) -->

<svg
   width="114.67034mm"
   height="201.03268mm"
   viewBox="0 0 114.67034 201.03268"
   version="1.1"
   id="svg5"
   inkscape:version="1.1.2 (b8e25be833, 2022-02-05)"
   sodipodi:docname="relGraph4-4.svg"
   xmlns:inkscape="http://www.inkscape.org/namespaces/inkscape"
   xmlns:sodipodi="http://sodipodi.sourceforge.net/DTD/sodipodi-0.dtd"
   xmlns="http://www.w3.org/2000/svg"
   xmlns:svg="http://www.w3.org/2000/svg">
  <sodipodi:namedview
     id="namedview7"
     pagecolor="#ffffff"
     bordercolor="#666666"
     borderopacity="1.0"
     inkscape:pageshadow="2"
     inkscape:pageopacity="0.0"
     inkscape:pagecheckerboard="0"
     inkscape:document-units="mm"
     showgrid="false"
     showguides="true"
     inkscape:guide-bbox="true"
     fit-margin-top="20"
     fit-margin-left="0"
     fit-margin-right="0"
     fit-margin-bottom="0"
     inkscape:zoom="0.733172"
     inkscape:cx="144.57726"
     inkscape:cy="150.03301"
     inkscape:window-width="1920"
     inkscape:window-height="1009"
     inkscape:window-x="-8"
     inkscape:window-y="-8"
     inkscape:window-maximized="1"
     inkscape:current-layer="layer1" />
  <defs
     id="defs2" />
  <g
     inkscape:label="Warstwa 1"
     inkscape:groupmode="layer"
     id="layer1"
     transform="translate(-41.861528,-44.596043)">
    <path
       id="path1277"
       style="fill:#f2f2f2;stroke:none;stroke-width:8.03206;stroke-linecap:round"
       d="m 158.2168,286.52734 v 59.70899 h 19.39843 c 4.18772,0 7.5586,3.37283 7.5586,7.56055 v 104.47265 c 0,4.18772 -3.37088,7.55859 -7.5586,7.55859 H 158.2168 V 525.625 h 19.88086 c 4.18771,0 7.55859,3.37088 7.55859,7.55859 v 104.47266 c 0,4.18772 -3.37088,7.56055 -7.55859,7.56055 H 158.2168 v 61.98437 h 19.39843 c 4.18772,0 7.5586,3.37088 7.5586,7.5586 v 102.86328 c 0,4.18772 -3.37088,7.55859 -7.5586,7.55859 H 158.2168 v 59.73828 h 56.11914 c 10.46929,0 18.89648,-8.42719 18.89648,-18.89648 V 636.95703 h 5.13086 6.86914 l 0.0762,30.29492 0.0781,30.29688 0.77539,2.07226 c 0.74559,1.99181 0.8358,1.86193 2.3457,-3.35937 0.86362,-2.98639 3.02663,-10.90525 4.8086,-17.59766 1.78197,-6.69241 6.60815,-24.63609 10.72461,-39.875 4.11645,-15.23886 7.54686,-28.81235 7.62109,-30.16406 0.25402,-4.62539 -0.2923,-7.93747 -2.9707,-18.00391 -1.47444,-5.54143 -3.51896,-13.23598 -4.54297,-17.09961 -1.02401,-3.86362 -3.60173,-13.53116 -5.72852,-21.48242 -2.12679,-7.95125 -5.28463,-19.79029 -7.01758,-26.31054 -4.34171,-16.33584 -4.22885,-16.01973 -5.09765,-14.13477 -0.39985,0.86751 -0.80067,2.88403 -0.89063,4.48047 -0.09,1.59643 -0.16559,15.33062 -0.16797,30.52148 l -0.004,27.61914 h -6.84766 -5.16211 V 305.42578 c 0,-10.46929 -8.42719,-18.89844 -18.89648,-18.89844 z"
       transform="scale(0.26458333)" />
    <path
       id="path4002"
       style="fill:#f2f2f2;stroke:none;stroke-width:5.02307;stroke-linecap:round"
       d="m 564.96875,244.14453 c -0.56711,0.0574 -1.05527,1.35124 -1.32227,3.63281 -0.23735,2.02844 -0.2917,6.84088 -0.26562,23.46094 l 0.0254,16.04102 h -27.37891 v 0.14843 c -0.0601,-7.7e-4 -0.11548,-0.0215 -0.17578,-0.0215 -8.87138,0 -16.01367,8.42719 -16.01367,18.89648 v 267.91211 h -12.25391 v 62.74219 H 519.8379 V 866.5117 c 0,10.46929 7.14229,18.89844 16.01367,18.89844 0.22898,0 0.44139,-0.067 0.66797,-0.0781 v 0.0781 h 27.72656 l 0.0274,15.84961 c 0.0378,23.09363 0.13774,25.32389 1.22851,26.75781 0.83766,1.10116 1.26634,0.17543 5.67383,-12.28711 2.11193,-5.97177 4.72785,-13.30397 5.8125,-16.29297 1.08461,-2.98896 2.43902,-6.77817 3.00977,-8.41992 0.57074,-1.64168 1.925,-5.36584 3.00976,-8.27539 1.08476,-2.90952 2.76597,-7.63019 3.73633,-10.49024 0.97036,-2.86004 2.39033,-6.83099 3.15625,-8.82617 1.07293,-2.79466 1.65467,-4.93234 1.71484,-7.11914 h -0.004 c 0.0771,-2.81155 -0.70574,-5.70596 -2.41016,-10.1875 -1.09379,-2.87603 -2.50702,-6.76111 -3.14062,-8.63476 -0.63357,-1.87371 -2.09286,-5.84602 -3.24414,-8.82618 -1.15132,-2.98019 -2.65849,-7.06279 -3.34961,-9.07422 -0.69113,-2.01135 -1.63513,-4.65665 -2.09571,-5.87695 -0.46057,-1.22029 -3.01277,-8.16575 -5.67382,-15.43359 -2.66102,-7.26785 -5.08702,-13.54045 -5.39063,-13.93946 -0.20114,-0.26442 -0.39885,-0.38242 -0.58789,-0.36328 -0.56711,0.0574 -1.05527,1.35124 -1.32227,3.63282 -0.23735,2.02843 -0.29365,6.84088 -0.26757,23.46093 l 0.0234,13.81836 h -12.28704 v -118.1074 h 11.625 v -5.54883 l 0.0332,20.91016 c 0.0378,23.09363 0.13969,25.32585 1.23047,26.75976 0.83765,1.10117 1.26438,0.17348 5.67187,-12.28906 2.11193,-5.97177 4.72785,-13.30397 5.8125,-16.29297 1.08461,-2.98896 2.43902,-6.77621 3.00977,-8.41797 0.57074,-1.64167 1.925,-5.36583 3.00976,-8.27539 1.08476,-2.90951 2.76597,-7.63019 3.73633,-10.49023 0.97036,-2.86004 2.39033,-6.83295 3.15625,-8.82813 1.07293,-2.79465 1.65467,-4.93234 1.71484,-7.11914 h -0.002 c 0.0771,-2.81155 -0.70574,-5.70401 -2.41016,-10.18554 -1.09378,-2.87603 -2.50702,-6.76306 -3.14062,-8.63672 -0.63356,-1.8737 -2.09481,-5.84406 -3.24609,-8.82422 -1.15132,-2.9802 -2.65849,-7.06475 -3.34961,-9.07617 -0.69113,-2.01135 -1.63318,-4.65471 -2.09375,-5.875 -0.46058,-1.2203 -3.01473,-8.16575 -5.67578,-15.4336 -2.66102,-7.26784 -5.08702,-13.54044 -5.39063,-13.93945 -0.20114,-0.26442 -0.39885,-0.38242 -0.58789,-0.36328 -0.56711,0.0574 -1.05527,1.34928 -1.32227,3.63086 -0.23735,2.02843 -0.2917,6.84283 -0.26562,23.46289 L 563.4043,646.25 H 551.86523 V 525.45703 h 11.625 v -6.51172 l 0.0332,20.91016 c 0.0378,23.09363 0.13969,25.32585 1.23047,26.75976 0.83765,1.10117 1.26438,0.17543 5.67187,-12.28711 2.11193,-5.97175 4.72785,-13.30592 5.8125,-16.29492 1.08461,-2.98896 2.43902,-6.77621 3.00977,-8.41797 0.57074,-1.64167 1.925,-5.36583 3.00976,-8.27539 1.08476,-2.90951 2.76597,-7.63019 3.73633,-10.49023 0.97036,-2.86004 2.39033,-6.831 3.15625,-8.82617 1.07293,-2.79466 1.65467,-4.93235 1.71484,-7.11914 h -0.002 c 0.0771,-2.81156 -0.70574,-5.70597 -2.41016,-10.1875 -1.09378,-2.87603 -2.50702,-6.76306 -3.14062,-8.63672 -0.63356,-1.8737 -2.09481,-5.84406 -3.24609,-8.82422 -1.15132,-2.9802 -2.65849,-7.06475 -3.34961,-9.07617 -0.69113,-2.01135 -1.63318,-4.65471 -2.09375,-5.875 -0.46058,-1.2203 -3.01473,-8.16575 -5.67578,-15.4336 -2.66102,-7.26784 -5.08702,-13.54044 -5.39063,-13.93945 -0.20114,-0.26442 -0.39885,-0.38242 -0.58789,-0.36328 -0.56711,0.0574 -1.05527,1.34928 -1.32227,3.63086 -0.23735,2.02843 -0.2917,6.84283 -0.26562,23.46289 l 0.0234,15.26953 H 551.86523 V 347.29297 h 11.625 v -6.77149 l 0.0332,20.91211 c 0.0378,23.09365 0.13969,25.3239 1.23047,26.75782 0.83765,1.10116 1.26438,0.17544 5.67187,-12.28711 2.11193,-5.97177 4.72785,-13.30397 5.8125,-16.29297 1.08461,-2.98897 2.43902,-6.77817 3.00977,-8.41992 0.57074,-1.64168 1.925,-5.36584 3.00976,-8.27539 1.08476,-2.90952 2.76597,-7.63019 3.73633,-10.49024 0.97036,-2.86004 2.39033,-6.831 3.15625,-8.82617 1.07293,-2.79466 1.65467,-4.93234 1.71484,-7.11914 h -0.002 c 0.0771,-2.81155 -0.70574,-5.70596 -2.41016,-10.1875 -1.09378,-2.87603 -2.50702,-6.7611 -3.14062,-8.63477 -0.63356,-1.8737 -2.09481,-5.84601 -3.24609,-8.82617 -1.15132,-2.98019 -2.65849,-7.06279 -3.34961,-9.07422 -0.69113,-2.01135 -1.63318,-4.65665 -2.09375,-5.87695 -0.46058,-1.2203 -3.01473,-8.1638 -5.67578,-15.43164 -2.66102,-7.26784 -5.08702,-13.5424 -5.39063,-13.94141 -0.20114,-0.26442 -0.39885,-0.38242 -0.58789,-0.36328 z"
       transform="scale(0.26458333)" />
  </g>
</svg>
